<svg width="929" height="763" viewBox="0 0 929 763" fill="none" xmlns="http://www.w3.org/2000/svg">
<g clip-path="url(#clip0_1_528)">
<path d="M595.844 -1.55612e-07C595.844 -1.55612e-07 199.307 166.885 310.522 214.685C421.738 262.485 419.536 297.749 336.95 359.46C254.364 421.172 35.2365 539.084 94.6983 590.878C154.16 642.671 168.475 697.09 -9.15527e-05 762.998H929V-1.55612e-07H595.844Z" fill="#DEF6FC"/>
<path d="M829.161 139.612C829.161 144.6 821.466 148.507 820.235 153.107C818.967 157.866 823.64 165.095 821.231 169.26C818.788 173.487 810.175 173.031 806.746 176.46C803.32 179.89 803.773 188.512 799.551 190.958C795.387 193.367 788.166 188.69 783.411 189.96C778.815 191.19 774.91 198.893 769.928 198.893C764.945 198.893 761.038 191.19 756.442 189.96C751.689 188.688 744.466 193.367 740.301 190.956C736.079 188.512 736.533 179.89 733.108 176.46C729.679 173.031 721.064 173.485 718.622 169.258C716.212 165.092 720.888 157.866 719.619 153.107C718.388 148.507 710.694 144.6 710.694 139.612C710.694 134.627 718.388 130.717 719.619 126.117C720.888 121.361 716.215 114.132 718.624 109.964C721.066 105.739 729.679 106.193 733.108 102.764C736.535 99.3345 736.079 90.7125 740.303 88.2683C744.468 85.8571 751.689 90.5362 756.444 89.2645C761.038 88.0347 764.945 80.334 769.928 80.334C774.91 80.334 778.817 88.0347 783.411 89.2645C788.166 90.5362 795.389 85.8571 799.551 88.2683C803.775 90.7125 803.322 99.3345 806.746 102.766C810.175 106.195 818.791 105.739 821.233 109.966C823.642 114.132 818.967 121.361 820.235 126.119C821.466 130.717 829.161 134.627 829.161 139.612Z" fill="#FFBB35"/>
<path d="M820.296 139.612C820.296 167.451 797.745 190.019 769.927 190.019C742.108 190.019 719.559 167.451 719.559 139.612C719.559 111.774 742.108 89.205 769.927 89.205C797.745 89.205 820.296 111.774 820.296 139.612Z" fill="#FFD118"/>
<path d="M799.462 98.7922C805.481 107.097 809.045 117.306 809.045 128.352C809.045 156.19 786.491 178.759 758.674 178.759C747.638 178.759 737.437 175.198 729.137 169.172C738.292 181.801 753.146 190.019 769.927 190.019C797.745 190.019 820.296 167.451 820.296 139.612C820.296 122.818 812.081 107.952 799.462 98.7922Z" fill="#FFBB35"/>
<path d="M725.12 160.302C728.659 148.449 739.627 139.803 752.622 139.803C765.62 139.803 776.585 148.449 780.127 160.302H725.12Z" fill="white"/>
<path d="M666.59 160.302C665.627 156.988 665.099 153.488 665.099 149.862C665.099 129.244 681.801 112.531 702.403 112.531C723.004 112.531 739.706 129.244 739.706 149.862C739.706 153.488 739.179 156.988 738.215 160.302H666.59Z" fill="white"/>
<path d="M623.602 160.302C624.606 146.265 636.274 135.184 650.554 135.184C664.838 135.184 676.503 146.265 677.507 160.302H623.602Z" fill="white"/>
<path d="M270.148 458.639C270.148 458.639 300.372 403.593 352.734 444.313C352.734 444.313 415.415 345.546 509.512 419.609C509.512 419.609 556.436 400.871 567.269 449.226C567.269 449.226 577.829 404.609 632.583 381.5C687.338 358.389 733.265 385.908 733.265 385.908C733.265 385.908 728.594 334.482 786.952 329.338C786.952 329.338 773.02 238.889 870.097 212.483C870.097 212.483 853.386 132.45 929 106.737V542.404H270.148V458.639Z" fill="white"/>
<path d="M962.511 448.498C962.511 448.498 975.373 421.003 950.205 411.619C950.205 411.619 958.347 395.327 940.836 382.112C940.836 382.112 941.074 362.093 928.999 351.179C916.924 362.093 917.159 382.112 917.159 382.112C899.651 395.327 907.791 411.619 907.791 411.619C882.625 421.003 895.487 448.498 895.487 448.498C864.419 473.993 928.999 500.166 928.999 500.166C928.999 500.166 993.577 473.993 962.511 448.498Z" fill="#3B722F"/>
<path d="M934.72 385.193C934.72 385.193 947.852 395.129 944.489 413.078C944.489 413.078 963.387 425.579 950.255 447.535C950.255 447.535 959.436 467.195 939.365 483.006C919.553 498.615 890.967 473.602 890.227 472.951C899.994 488.392 928.999 500.166 928.999 500.166C928.999 500.166 993.578 473.994 962.511 448.498C962.511 448.498 975.372 421.004 950.204 411.617C950.204 411.617 958.348 395.327 940.836 382.112C940.836 382.112 941.074 362.093 928.999 351.179C928.999 351.179 938.565 367.403 934.72 385.193" fill="#64A03D"/>
<path d="M597.385 475.916C597.385 475.916 608.441 452.285 586.808 444.218C586.808 444.218 593.807 430.216 578.758 418.857C578.758 418.857 578.961 401.653 568.582 392.271C558.202 401.653 558.407 418.857 558.407 418.857C543.357 430.216 550.355 444.218 550.355 444.218C528.722 452.285 539.778 475.916 539.778 475.916C513.075 497.83 568.582 520.326 568.582 520.326C568.582 520.326 624.088 497.83 597.385 475.916Z" fill="#3B722F"/>
<path d="M573.5 421.505C573.5 421.505 584.787 430.046 581.897 445.473C581.897 445.473 598.139 456.218 586.85 475.088C586.85 475.088 594.743 491.986 577.49 505.578C560.465 518.992 535.891 497.496 535.259 496.936C543.652 510.207 568.582 520.327 568.582 520.327C568.582 520.327 624.089 497.831 597.386 475.915C597.386 475.915 608.439 452.286 586.808 444.219C586.808 444.219 593.807 430.215 578.759 418.858C578.759 418.858 578.959 401.652 568.582 392.269C568.582 392.269 576.803 406.216 573.5 421.505Z" fill="#275B1E"/>
<path d="M217.491 475.916C217.491 475.916 228.546 452.285 206.913 444.218C206.913 444.218 213.912 430.216 198.864 418.857C198.864 418.857 199.066 401.653 188.687 392.271C178.308 401.653 178.513 418.857 178.513 418.857C163.462 430.216 170.461 444.218 170.461 444.218C148.828 452.285 159.883 475.916 159.883 475.916C133.181 497.83 188.687 520.326 188.687 520.326C188.687 520.326 244.194 497.83 217.491 475.916Z" fill="#73AF4D"/>
<path d="M193.605 421.505C193.605 421.505 204.892 430.046 202.003 445.473C202.003 445.473 218.245 456.218 206.956 475.088C206.956 475.088 214.849 491.986 197.596 505.578C180.57 518.992 155.999 497.496 155.365 496.936C163.758 510.207 188.688 520.327 188.688 520.327C188.688 520.327 244.194 497.831 217.491 475.915C217.491 475.915 228.545 452.286 206.914 444.219C206.914 444.219 213.913 430.215 198.864 418.858C198.864 418.858 199.065 401.652 188.688 392.269C188.688 392.269 196.909 406.216 193.605 421.505Z" fill="#64A03D"/>
<path d="M657.142 496.369C657.142 496.369 665.517 478.464 649.125 472.353C649.125 472.353 654.431 461.74 643.025 453.136C643.025 453.136 643.179 440.097 635.315 432.987C627.453 440.097 627.605 453.136 627.605 453.136C616.201 461.74 621.504 472.353 621.504 472.353C605.113 478.464 613.49 496.369 613.49 496.369C593.256 512.976 635.315 530.022 635.315 530.022C635.315 530.022 677.376 512.976 657.142 496.369" fill="#73AF4D"/>
<path d="M639.042 455.142C639.042 455.142 647.595 461.613 645.404 473.302C645.404 473.302 657.713 481.444 649.159 495.743C649.159 495.743 655.14 508.546 642.068 518.845C629.164 529.012 610.546 512.723 610.064 512.297C616.424 522.354 635.315 530.022 635.315 530.022C635.315 530.022 677.375 512.976 657.142 496.369C657.142 496.369 665.515 478.464 649.126 472.353C649.126 472.353 654.429 461.74 643.026 453.136C643.026 453.136 643.18 440.097 635.315 432.987C635.315 432.987 641.546 443.555 639.042 455.142" fill="#64A03D"/>
<path d="M490.076 464.089C490.076 464.089 498.453 446.182 482.061 440.072C482.061 440.072 487.365 429.46 475.961 420.854C475.961 420.854 476.115 407.817 468.251 400.707C460.387 407.817 460.541 420.854 460.541 420.854C449.135 429.46 454.438 440.072 454.438 440.072C438.049 446.182 446.424 464.089 446.424 464.089C426.189 480.694 468.251 497.742 468.251 497.742C468.251 497.742 510.31 480.694 490.076 464.089" fill="#73AF4D"/>
<path d="M471.978 422.859C471.978 422.859 480.529 429.332 478.34 441.02C478.34 441.02 490.646 449.163 482.095 463.463C482.095 463.463 488.074 476.266 475.001 486.565C462.1 496.73 443.48 480.44 443 480.017C449.36 490.071 468.251 497.741 468.251 497.741C468.251 497.741 510.308 480.694 490.076 464.089C490.076 464.089 498.451 446.181 482.062 440.072C482.062 440.072 487.363 429.46 475.962 420.853C475.962 420.853 476.116 407.817 468.251 400.707C468.251 400.707 474.482 411.273 471.978 422.859" fill="#64A03D"/>
<path d="M285.514 447.284C285.514 447.284 293.892 429.376 277.5 423.265C277.5 423.265 282.803 412.652 271.4 404.048C271.4 404.048 271.554 391.009 263.69 383.902C255.825 391.009 255.979 404.048 255.979 404.048C244.574 412.652 249.877 423.265 249.877 423.265C233.488 429.376 241.865 447.284 241.865 447.284C221.63 463.888 263.69 480.936 263.69 480.936C263.69 480.936 305.749 463.888 285.514 447.284Z" fill="#3B722F"/>
<path d="M267.417 406.054C267.417 406.054 275.97 412.527 273.779 424.214C273.779 424.214 286.088 432.358 277.534 446.657C277.534 446.657 283.513 459.458 270.44 469.757C257.539 479.924 238.921 463.635 238.439 463.212C244.799 473.266 263.69 480.936 263.69 480.936C263.69 480.936 305.747 463.888 285.515 447.283C285.515 447.283 293.89 429.376 277.501 423.264C277.501 423.264 282.802 412.652 271.401 404.048C271.401 404.048 271.555 391.009 263.69 383.901C263.69 383.901 269.921 394.467 267.417 406.054" fill="#275B1E"/>
<path d="M754.051 496.369C754.051 496.369 762.428 478.464 746.034 472.353C746.034 472.353 751.34 461.74 739.936 453.136C739.936 453.136 740.088 440.097 732.224 432.987C724.362 440.097 724.514 453.136 724.514 453.136C713.11 461.74 718.413 472.353 718.413 472.353C702.022 478.464 710.399 496.369 710.399 496.369C690.165 512.976 732.224 530.022 732.224 530.022C732.224 530.022 774.285 512.976 754.051 496.369" fill="#3B722F"/>
<path d="M735.951 455.142C735.951 455.142 744.505 461.613 742.316 473.302C742.316 473.302 754.622 481.444 746.068 495.743C746.068 495.743 752.05 508.546 738.977 518.845C726.076 529.012 707.456 512.723 706.975 512.297C713.333 522.354 732.225 530.022 732.225 530.022C732.225 530.022 774.284 512.976 754.052 496.369C754.052 496.369 762.427 478.464 746.035 472.353C746.035 472.353 751.338 461.74 739.937 453.136C739.937 453.136 740.089 440.097 732.225 432.987C732.225 432.987 738.455 443.555 735.951 455.142" fill="#275B1E"/>
<path d="M856.677 477.343C856.677 477.343 868.122 452.872 845.722 444.521C845.722 444.521 852.97 430.019 837.387 418.259C837.387 418.259 837.598 400.442 826.851 390.729C816.102 400.442 816.313 418.259 816.313 418.259C800.73 430.019 807.977 444.521 807.977 444.521C785.578 452.872 797.023 477.343 797.023 477.343C769.371 500.037 826.851 523.331 826.851 523.331C826.851 523.331 884.329 500.037 856.677 477.343Z" fill="#73AF4D"/>
<path d="M831.944 421.002C831.944 421.002 843.631 429.846 840.636 445.821C840.636 445.821 857.455 456.946 845.768 476.489C845.768 476.489 853.94 493.984 836.078 508.059C818.444 521.95 792.999 499.688 792.344 499.108C801.037 512.852 826.85 523.332 826.85 523.332C826.85 523.332 884.328 500.036 856.676 477.342C856.676 477.342 868.123 452.873 845.724 444.522C845.724 444.522 852.971 430.02 837.388 418.26C837.388 418.26 837.597 400.443 826.85 390.73C826.85 390.73 835.364 405.168 831.944 421.002" fill="#64A03D"/>
<path d="M689.881 520.032C689.881 522.263 685.838 524.068 680.85 524.068C675.861 524.068 671.818 522.263 671.818 520.032C671.818 517.804 675.861 515.999 680.85 515.999C685.838 515.999 689.881 517.804 689.881 520.032Z" fill="#B7BDE2"/>
<path d="M784.051 520.912C784.051 522.656 780.888 524.068 776.988 524.068C773.088 524.068 769.927 522.656 769.927 520.912C769.927 519.171 773.088 517.756 776.988 517.756C780.888 517.756 784.051 519.171 784.051 520.912Z" fill="#B7BDE2"/>
<path d="M875.994 521.433C875.994 522.888 873.354 524.067 870.096 524.067C866.839 524.067 864.201 522.888 864.201 521.433C864.201 519.979 866.839 518.799 870.096 518.799C873.354 518.799 875.994 519.979 875.994 521.433Z" fill="#B7BDE2"/>
<path d="M464.5 480.679C215.67 403.945 102.679 532.737 101.499 534.092C83.3103 556.445 77.9477 576.285 94.6983 590.878C154.16 642.671 168.475 697.09 -9.15527e-05 763H929V456.301C929 456.301 714.642 557.818 464.5 480.679Z" fill="#8CBF62"/>
<path d="M252.162 586.47C161.897 476.306 290.589 457.041 290.669 457.03C162.353 464.768 102.358 533.107 101.499 534.092C83.3102 556.445 77.9477 576.285 94.6983 590.878C131.787 623.182 151.304 656.508 119.866 693.008C123.13 695.404 126.468 697.817 129.935 700.253C199.307 749.018 259.87 750.666 323.736 753.972C387.602 757.278 506.526 752.87 541.142 749.564C575.755 746.258 670.568 654.599 670.568 654.599C670.568 654.599 342.456 696.669 252.162 586.47Z" fill="#73AF4D"/>
<path d="M-7.62939e-05 763H928.999V700.252C928.999 700.252 805.297 606.305 595.899 672.425C386.501 738.544 203.562 703.303 124.905 623.948C152.096 666.042 133.086 710.935 -7.62939e-05 763Z" fill="#73AF4D"/>
<path d="M670.575 654.602C670.81 654.626 852.559 638.325 778.509 699.975C719.829 748.831 517.538 763 517.538 763H929V700.253C929 700.253 834.381 628.399 670.575 654.602Z" fill="#8CBF62"/>
<path d="M404.608 638.539V665.813C404.608 665.813 401.956 727.326 547.574 674.905" stroke="white" stroke-miterlimit="10"/>
<path d="M424.887 720.179C424.887 724.774 403.866 728.499 377.934 728.499C352.002 728.499 330.979 724.774 330.979 720.179C330.979 715.583 352.002 711.859 377.934 711.859C403.866 711.859 424.887 715.583 424.887 720.179Z" fill="#64A03D"/>
<path d="M861.049 629.405C861.049 636.865 809.665 642.913 746.279 642.913C682.893 642.913 631.507 636.865 631.507 629.405C631.507 621.946 682.893 615.899 746.279 615.899C809.665 615.899 861.049 621.946 861.049 629.405Z" fill="#73AF4D"/>
<path d="M732.215 710.719C732.215 718.178 680.831 724.225 617.445 724.225C554.059 724.225 502.673 718.178 502.673 710.719C502.673 703.259 554.059 697.211 617.445 697.211C680.831 697.211 732.215 703.259 732.215 710.719Z" fill="#64A03D"/>
<path d="M330.98 703.281C330.98 705.655 320.12 707.579 306.726 707.579C293.332 707.579 282.474 705.655 282.474 703.281C282.474 700.907 293.332 698.985 306.726 698.985C320.12 698.985 330.98 700.907 330.98 703.281Z" fill="#64A03D"/>
<path d="M358.521 689.506C358.521 691.234 350.615 692.636 340.861 692.636C331.109 692.636 323.203 691.234 323.203 689.506C323.203 687.778 331.109 686.376 340.861 686.376C350.615 686.376 358.521 687.778 358.521 689.506Z" fill="#64A03D"/>
<path d="M635.315 582.712C635.315 585.086 624.455 587.01 611.061 587.01C597.667 587.01 586.809 585.086 586.809 582.712C586.809 580.34 597.667 578.416 611.061 578.416C624.455 578.416 635.315 580.34 635.315 582.712Z" fill="#73AF4D"/>
<path d="M603.902 568.937C603.902 570.665 595.996 572.067 586.242 572.067C576.488 572.067 568.582 570.665 568.582 568.937C568.582 567.209 576.488 565.807 586.242 565.807C595.996 565.807 603.902 567.209 603.902 568.937Z" fill="#73AF4D"/>
<path d="M572.057 592.735C572.057 594.463 564.149 595.865 554.395 595.865C544.643 595.865 536.737 594.463 536.737 592.735C536.737 591.008 544.643 589.606 554.395 589.606C564.149 589.606 572.057 591.008 572.057 592.735Z" fill="#73AF4D"/>
<path d="M384.539 720.179H371.325V465.293H384.539V720.179Z" fill="#275B1E"/>
<path d="M456.226 370.321C471.686 352.228 481.044 328.758 481.044 303.086C481.044 245.906 434.723 199.552 377.587 199.552C320.449 199.552 274.128 245.906 274.128 303.086C274.128 328.758 283.485 352.228 298.945 370.321L298.901 370.31C298.901 370.31 298.974 370.376 299.078 370.471C301.161 372.902 303.352 375.233 305.651 377.462C314.452 387.743 328.734 408.17 328.734 432.418H377.587H426.438C426.438 408.17 440.72 387.745 449.52 377.462C451.819 375.236 454.011 372.902 456.096 370.471C456.198 370.376 456.27 370.31 456.27 370.31L456.226 370.321Z" fill="#FFD118"/>
<path d="M315.901 350.123L312.369 344.929L329.857 318.366L334.834 316.649L336.132 310.247L339.162 307.454V304.726L326.611 300.287L325.206 297.415L321.094 296.066L314.388 291.625H307.896L302.379 303.307L307.031 311.329L312.113 314.904L310.492 332.441L308.222 346.189L313.413 350.123H315.901Z" fill="white"/>
<path d="M306.475 294.635L302.702 293.972L302.381 289.425L298.304 289.136L299.892 285.313L297.437 285.022L295.347 287.693L291.094 284.012L292.246 278.888L300.542 278.022L303.786 281.775L304.795 276.435L307.752 273.98L309.554 269.36L316.407 263.515L320.228 263.804L316.982 261.06L314.388 260.701L313.45 259.328L316.696 258.318L319.22 258.75L322.754 257.02V253.987L318.281 250.884L316.621 244.986L314.027 248.358L312.007 244.389L306.922 241.791L305.515 247.347L307.391 250.595L305.156 253.049L305.733 257.163L302.92 254.638L301.333 251.607L294.986 249.079L293.184 244.986L297.296 239.554L300.397 238.11L303.495 234.357L302.775 229.376L298.881 232.986L294.338 224.417L291.669 232.552L286.549 232.047L289.288 228.871L287.414 224.417L286.549 219.993L279.699 220.943L276.237 217.972L271.91 217.395L269.891 223.024L276.451 225.84L276.381 229.592L267.726 227.571L263.832 230.53L246.379 225.045L240.97 232.263L243.351 236.305L240.97 242.439L242.197 246.481L247.892 249.513L251.281 247.347L252.869 243.955L260.947 245.326L264.407 252.182L269.602 254.638L273.062 260.771L271.692 268.421L276.381 275.785L281.571 279.236L285.467 285.313L289 287.838L290.226 289.641L295.204 290.146L297.943 292.672L299.963 293.106L302.381 295.993L305.361 296.994L306.475 294.635Z" fill="white"/>
<path d="M299.242 218.983L297.24 225.642L299.621 228.293L304.433 227.645C304.433 227.645 308.168 231.326 308.329 231.379C308.492 231.434 308.652 235.762 308.652 235.762L315.253 243.666L316.226 240.959L313.63 235.98L317.089 236.684L318.768 235.167L313.467 230.947L312.709 226.94L307.408 222.122L306.761 219.47L299.242 218.983Z" fill="white"/>
<path d="M311.069 204.212L309.917 208.012L313.231 213.065L318.768 214.13L323.474 222.88L324.194 236.161L330.11 245.975L337.611 235.872L347.56 228.654V219.849L350.879 212.92L348.717 204.212H311.069Z" fill="white"/>
<path d="M371.397 271.598L357.01 275.713L354.305 282.1L350.194 288.053L353.44 296.995L360.798 298.773L368.367 297.416L371.397 300.937L370.424 304.618L373.778 308.025L370.748 315.012L377.456 328.602L386.003 325.838L389.894 316.202L395.089 310.858L393.572 302.72L402.119 292.111H395.413L389.788 283.506L389.57 277.553L379.51 275.603L377.995 277.443L372.148 275.603L371.397 271.598Z" fill="white"/>
<path d="M396.007 313.604V316.039L395.468 318.909L397.199 320.91L398.604 318.909L400.606 311.547L399.848 309.544L396.007 313.604Z" fill="white"/>
<path d="M440.09 296.426L431.871 284.915L426.676 288.703L423.432 293.682L417.049 287.729L409.691 281.234H402.12L408.394 285.997L398.766 290.544L389.787 283.506L389.571 277.553L391.265 273.187L383.26 272.03C383.26 272.03 376.481 267.99 376.157 267.774C375.831 267.556 373.38 264.669 373.38 264.669L365.375 267.267L362.131 271.021L357.226 272.03L355.713 267.918C355.713 267.918 359.173 265.103 359.462 265.174C359.75 265.246 362.851 265.319 362.851 265.319L361.265 261.277L359.966 259.617L366.456 256.946L368.691 253.122L375.111 254.059L375.257 251.245L370.422 249.08L366.025 247.132L366.602 242.512L373.237 237.315L377.49 229.52L379.509 226.201L387.083 226.851L392.346 232.118L395.883 232.264L404.897 231.541L412.541 226.705L418.598 219.128H423.863C423.863 219.128 428.191 214.87 428.695 214.652C429.202 214.436 435.042 211.115 435.042 211.115L440.594 208.446L445.86 210.539L448.745 213.786L444.921 217.973L449.826 219.922L457.977 220.354L459.131 224.416L463.456 225.262L467.713 222.52L472.688 222.593L478.24 224.416L481.416 227.067L486.536 227.21L492.594 228.438L497.281 230.964L502.474 234.701L503.771 236.881L500.023 240.419L497.281 238.759L494.469 241.428L492.665 243.956L487.906 245.759L484.085 245.47L475.932 245.543L469.371 247.491L465.332 251.606L468.433 255.575L464.901 264.526L468.651 261.423L471.679 261.277L469.226 263.66L469.732 265.753L468.145 268.566C468.145 268.566 467.929 271.166 467.929 271.671C467.929 272.176 464.467 274.774 464.467 274.774L461.223 276L459.417 278.455L457.543 281.126L457.254 279.237L457.977 275.133L462.881 272.753L465.982 270.227L466.991 265.681L461.582 266.401L458.842 268.206L458.481 271.382L456.75 273.474L455.814 271.814L454.946 269.361L452.568 269.145L451.486 271.814L452.999 276.507L452.856 282.607L446.509 284.807L442.902 285.168L441.677 287.837L444.058 290.797L443.77 294.405L440.09 296.426Z" fill="white"/>
<path d="M451.774 316.202L447.663 318.366L446.004 320.458L447.951 323.779L447.878 327.967L449.898 329.41L459.993 325.729L466.701 330.854L468.721 332.948L474.275 330.71L474.925 327.028L477.16 324.575L476.656 319.594L472.471 316.202L468.796 309.202L467.569 310.211L466.919 314.324L463.601 312.016L464.757 310.211L459.059 309.923L458.192 312.882L456.751 311.512L453.721 314.108L453.071 315.986L451.774 316.202Z" fill="white"/>
<path d="M491.258 328.273V332.009L487.528 337.151L485.634 339.046L486.228 340.886L491.258 336.987L495.154 331.901L494.397 329.858L491.258 328.273Z" fill="white"/>
<path d="M431.87 294.405L436.702 303.307L441.172 305.447L443.119 307.455L453.289 309.2L460.5 306.893L452.928 306.675C452.928 306.675 446.436 306.529 446.004 306.386C445.572 306.243 440.956 302.417 440.956 302.417L431.87 294.405Z" fill="white"/>
<path d="M443.335 300.468L449.537 296.426L451.342 297.416L450.261 298.447L451.342 300.468L449.175 304.438L444.489 303.307L443.335 300.468Z" fill="white"/>
<path d="M455.308 299.602L451.846 301.804L451.341 305.123H452.784L453.037 304.149L454.731 305.123L455.308 304.581L454.081 302.72L455.308 299.602Z" fill="white"/>
<path d="M459.706 301.082L462.556 302.362L462.774 303.645L465.333 302.721L471.173 304.582L472.365 307.037L475.644 308.024L473.554 308.732L470.561 306.964L468.903 308.024L465.764 307.685L463.564 304.69L461.113 304.258L459.994 302.362L458.735 301.805L459.706 301.082Z" fill="white"/>
<path d="M457.11 299.277L456.244 302.362L457.797 303.5L458.372 299.89L457.11 299.277Z" fill="white"/>
<path d="M452.819 287.152L451.342 289.642L452.08 292.111L450.007 295.234L450.476 295.668L453.324 293.107L453.901 295.163L452.676 297.184L454.909 296.137L455.848 297.184L457.543 295.703L455.308 290.652L453.775 290.039L454.189 287.802L452.819 287.152Z" fill="white"/>
<g opacity="0.399994">
<g opacity="0.399994">
<path opacity="0.399994" d="M481.043 303.087C481.043 245.907 434.724 199.55 377.586 199.55C374.194 199.55 370.847 199.727 367.539 200.046C419.96 205.102 460.947 249.298 460.947 303.087C460.947 328.759 451.589 352.229 436.129 370.321L436.173 370.31C436.173 370.31 436.103 370.376 436.002 370.471C433.916 372.902 431.723 375.236 429.426 377.462C420.623 387.746 406.341 408.17 406.341 432.418H406.365V444.646C406.365 445.393 406.341 446.138 406.308 446.879C409.422 447.161 411.871 449.75 411.871 452.937C411.871 456.314 409.138 459.053 405.762 459.053H404.205C402.95 463.128 401.168 466.972 398.955 470.516C400.437 471.634 401.41 473.39 401.41 475.391C401.41 478.768 398.677 481.505 395.301 481.505H389.569C383.409 486.872 375.881 490.685 367.592 492.426C370.84 493.109 374.19 493.502 377.641 493.502C389.899 493.502 401.091 488.972 409.664 481.505H415.397C418.773 481.505 421.506 478.768 421.506 475.391C421.506 473.39 420.533 471.634 419.051 470.516C421.264 466.972 423.046 463.128 424.301 459.053H425.858C429.234 459.053 431.967 456.314 431.967 452.937C431.967 449.75 429.518 447.161 426.404 446.879C426.437 446.138 426.461 445.393 426.461 444.646V432.418H426.437C426.437 408.17 440.719 387.746 449.521 377.462C451.818 375.236 454.012 372.902 456.097 370.471C456.199 370.376 456.269 370.31 456.269 370.31L456.225 370.321C471.685 352.229 481.043 328.759 481.043 303.087Z" fill="#F6921E"/>
</g>
</g>
<path d="M377.546 168.506C376.165 168.506 375.04 167.387 375.04 166.005V113.219C375.04 111.842 376.165 110.718 377.546 110.718C378.931 110.718 380.05 111.842 380.05 113.219V166.005C380.05 167.387 378.931 168.506 377.546 168.506Z" fill="#FFD118"/>
<path d="M310.327 186.552C309.461 186.552 308.626 186.1 308.164 185.298L281.794 139.59C281.1 138.393 281.51 136.864 282.708 136.176C283.906 135.477 285.436 135.892 286.124 137.088L312.491 182.795C313.192 183.996 312.784 185.53 311.582 186.222C311.188 186.447 310.752 186.552 310.327 186.552Z" fill="#FFD118"/>
<path d="M261.137 235.817C260.712 235.817 260.278 235.704 259.886 235.473L214.221 209.085C213.019 208.39 212.609 206.859 213.303 205.664C213.99 204.463 215.521 204.046 216.723 204.747L262.39 231.136C263.592 231.83 264 233.362 263.308 234.563C262.837 235.361 262.002 235.817 261.137 235.817Z" fill="#FFD118"/>
<path d="M243.151 303.087H190.415C189.029 303.087 187.904 301.965 187.904 300.578C187.904 299.199 189.029 298.07 190.415 298.07H243.151C244.531 298.07 245.657 299.199 245.657 300.578C245.657 301.965 244.531 303.087 243.151 303.087Z" fill="#FFD118"/>
<path d="M215.517 396.74C214.647 396.74 213.808 396.293 213.35 395.486C212.654 394.292 213.066 392.758 214.264 392.064L259.935 365.678C261.133 364.977 262.661 365.398 263.355 366.594C264.044 367.789 263.639 369.321 262.436 370.008L216.763 396.405C216.369 396.632 215.937 396.74 215.517 396.74Z" fill="#FFD118"/>
<path d="M284.033 465.292C283.61 465.292 283.174 465.18 282.788 464.957C281.586 464.261 281.17 462.729 281.861 461.534L308.245 415.828C308.927 414.634 310.458 414.208 311.656 414.909C312.858 415.603 313.268 417.133 312.574 418.33L286.198 464.038C285.737 464.845 284.896 465.292 284.033 465.292Z" fill="#FFD118"/>
<path d="M471.214 465.251C470.342 465.251 469.505 464.804 469.043 463.997L442.672 418.289C441.979 417.088 442.393 415.562 443.591 414.873C444.793 414.167 446.315 414.588 447.007 415.787L473.37 461.498C474.066 462.688 473.654 464.22 472.461 464.916C472.066 465.139 471.632 465.251 471.214 465.251Z" fill="#FFD118"/>
<path d="M539.702 396.667C539.273 396.667 538.841 396.562 538.447 396.33L492.778 369.942C491.58 369.248 491.162 367.716 491.86 366.521C492.547 365.32 494.086 364.91 495.276 365.604L540.951 391.993C542.145 392.687 542.561 394.221 541.869 395.411C541.403 396.218 540.564 396.667 539.702 396.667Z" fill="#FFD118"/>
<path d="M564.768 303.003H512.019C510.638 303.003 509.513 301.881 509.513 300.492C509.513 299.113 510.638 297.991 512.019 297.991H564.768C566.149 297.991 567.27 299.113 567.27 300.492C567.27 301.881 566.149 303.003 564.768 303.003Z" fill="#FFD118"/>
<path d="M493.987 235.738C493.118 235.738 492.283 235.289 491.82 234.484C491.124 233.287 491.536 231.756 492.739 231.064L538.414 204.673C539.608 203.972 541.138 204.391 541.83 205.59C542.526 206.787 542.11 208.319 540.912 209.006L495.234 235.401C494.849 235.626 494.408 235.738 493.987 235.738Z" fill="#FFD118"/>
<path d="M444.763 186.519C444.342 186.519 443.911 186.406 443.517 186.175C442.323 185.49 441.902 183.956 442.598 182.761L468.96 137.039C469.656 135.847 471.184 135.431 472.38 136.123C473.578 136.817 473.985 138.349 473.294 139.543L446.935 185.263C446.472 186.063 445.631 186.519 444.763 186.519Z" fill="#FFD118"/>
<path d="M377.546 168.506C376.165 168.506 375.04 167.387 375.04 166.005V113.219C375.04 111.842 376.165 110.718 377.546 110.718C378.931 110.718 380.05 111.842 380.05 113.219V166.005C380.05 167.387 378.931 168.506 377.546 168.506Z" fill="#FFD118"/>
<path d="M417.591 342.911C416.688 342.911 415.726 343.023 414.728 343.25C410.725 344.169 406.833 347.74 403.776 353.305C401.587 357.285 399.698 362.599 398.447 369.077C413.623 364.184 421.397 357.459 423.606 351.687C424.632 349.012 424.416 346.633 422.994 344.994C421.811 343.632 419.886 342.911 417.591 342.911ZM341.624 349.904C339.139 349.904 336.783 350.878 334.874 352.78C332.158 355.487 330.416 360.267 332.647 364.849C335.62 370.959 344.317 374.496 356.921 375.047C355.205 363.058 351.921 353.803 346.356 351.061C344.782 350.285 343.178 349.904 341.624 349.904V349.904ZM399.253 437.625C391.094 414.545 388.902 394.475 390.116 378.556C385.55 379.565 380.474 380.445 374.83 381.148C371.229 381.595 367.888 381.88 364.787 382.021C366.866 405.61 363.774 432.115 363.173 436.897L356.264 436.027C358.209 420.531 359.275 399.472 357.727 382.095C336.6 381.511 329.066 373.405 326.386 367.902C323.151 361.259 324.589 353.197 329.96 347.841C335.191 342.627 342.659 341.47 349.433 344.809C357.78 348.926 362.03 360.957 364.003 375.056C367.15 374.939 370.478 374.666 373.969 374.232C380.296 373.445 385.945 372.407 390.959 371.181C392.307 362.465 394.727 355.306 397.674 349.946C401.761 342.51 407.122 337.844 413.176 336.458C419.254 335.065 424.89 336.548 428.253 340.427C431.395 344.048 432.071 349.062 430.109 354.182C428.184 359.212 421.335 369.89 397.335 376.738C395.802 392.005 397.601 412.054 405.816 435.3L399.253 437.625Z" fill="#275B1E"/>
<path d="M377.641 493.503C350.678 493.503 328.82 471.628 328.82 444.645V432.417H426.461V444.645C426.461 471.628 404.603 493.503 377.641 493.503Z" fill="#275B1E"/>
<path d="M425.859 459.052H329.337C325.965 459.052 323.228 456.315 323.228 452.939C323.228 449.562 325.965 446.825 329.337 446.825H425.859C429.233 446.825 431.966 449.562 431.966 452.939C431.966 456.315 429.233 459.052 425.859 459.052Z" fill="#3B722F"/>
<path d="M415.398 481.505H339.798C336.426 481.505 333.689 478.768 333.689 475.392C333.689 472.015 336.426 469.278 339.798 469.278H415.398C418.772 469.278 421.505 472.015 421.505 475.392C421.505 478.768 418.772 481.505 415.398 481.505Z" fill="#3B722F"/>
<g opacity="0.5">
<g opacity="0.5">
<path opacity="0.5" d="M426.405 446.879C426.438 446.138 426.46 445.393 426.46 444.644V432.416H426.438H406.364V444.644C406.364 445.393 406.342 446.138 406.309 446.879C409.423 447.161 411.87 449.751 411.87 452.938C411.87 456.314 409.137 459.052 405.763 459.052H404.206C402.95 463.129 401.169 466.973 398.953 470.517C400.438 471.632 401.409 473.391 401.409 475.392C401.409 478.768 398.676 481.506 395.302 481.506H389.567C383.41 486.872 375.882 490.685 367.593 492.426C368.315 492.576 369.044 492.711 369.777 492.832C370.716 492.986 371.66 493.127 372.614 493.226C373.017 493.27 373.422 493.295 373.827 493.328C375.087 493.425 376.353 493.502 377.64 493.502C389.9 493.502 401.092 488.973 409.663 481.506H415.398C418.772 481.506 421.505 478.768 421.505 475.392C421.505 473.391 420.534 471.632 419.049 470.517C421.265 466.973 423.046 463.129 424.302 459.052H425.859C429.233 459.052 431.966 456.314 431.966 452.938C431.966 449.751 429.519 447.161 426.405 446.879Z" fill="#275B1E"/>
</g>
</g>
<path d="M431.28 573.125H377.932V559.901H431.28V573.125Z" fill="#275B1E"/>
<path d="M512.21 566.888C512.21 591.182 492.528 610.882 468.25 610.882C443.972 610.882 424.291 591.182 424.291 566.888C424.291 542.591 443.972 522.892 468.25 522.892C492.528 522.892 512.21 542.591 512.21 566.888Z" fill="#3B722F"/>
<path d="M506.993 566.888C506.993 588.302 489.647 605.66 468.25 605.66C446.853 605.66 429.507 588.302 429.507 566.888C429.507 545.474 446.853 528.113 468.25 528.113C489.647 528.113 506.993 545.474 506.993 566.888Z" fill="#275B1E"/>
<path d="M463.921 544.075H488.091L468.429 563.75H482.912L451.417 595.27L465 570.854H455.506L463.921 544.075Z" fill="#FFD118"/>
<path d="M377.932 573.125H324.584V559.901H377.932V573.125Z" fill="#275B1E"/>
<path d="M243.658 566.888C243.658 591.182 263.34 610.882 287.618 610.882C311.894 610.882 331.578 591.182 331.578 566.888C331.578 542.591 311.894 522.892 287.618 522.892C263.34 522.892 243.658 542.591 243.658 566.888Z" fill="#3B722F"/>
<path d="M248.876 566.888C248.876 588.302 266.221 605.66 287.618 605.66C309.016 605.66 326.361 588.302 326.361 566.888C326.361 545.474 309.016 528.113 287.618 528.113C266.221 528.113 248.876 545.474 248.876 566.888Z" fill="#275B1E"/>
<path d="M265.9 584.787C265.9 584.787 260.817 563.23 283.461 556.754C303.604 550.995 305.392 543.899 305.392 543.899C305.392 543.899 312.503 559.924 303.419 575.213C294.334 590.504 269.008 587.473 269.008 587.473C269.008 587.473 273.274 577.556 286.97 571.356C300.666 565.158 303.143 555.24 303.143 555.24C303.143 555.24 298.188 563.849 286.49 568.671C274.789 573.491 268.801 578.382 265.9 584.787Z" fill="#8CBF62"/>
<path d="M410.361 657.753H377.932V610.736H410.361V657.753Z" fill="#3B722F"/>
<path d="M420.82 657.753H388.393V610.736H420.82V657.753Z" fill="#275B1E"/>
<path d="M409.26 641.406H400.083V624.694H409.26V641.406Z" fill="#3B722F"/>
<path d="M664.886 667.298C664.886 667.298 778.509 651.066 766.031 668.724C753.55 686.382 761.644 689.688 803.293 682.711C844.945 675.731 870.338 655.344 875.993 638.538C881.651 621.733 864.766 605.541 819.251 595.268" stroke="white" stroke-miterlimit="10"/>
<path d="M673.769 554.532C673.769 561.232 669.791 566.662 664.887 566.662C659.98 566.662 656.005 561.232 656.005 554.532C656.005 547.834 659.98 542.403 664.887 542.403C669.791 542.403 673.769 547.834 673.769 554.532Z" fill="#609E51"/>
<path d="M676.857 554.532C676.857 561.232 672.88 566.662 667.975 566.662C663.069 566.662 659.093 561.232 659.093 554.532C659.093 547.834 663.069 542.403 667.975 542.403C672.88 542.403 676.857 547.834 676.857 554.532Z" fill="#48823B"/>
<path d="M839.181 625.984H691.679L669.281 554.855L675.582 552.865L696.524 619.372H839.181C840.927 619.372 842.522 618.564 843.553 617.153C844.588 615.745 844.878 613.979 844.354 612.313L826.262 554.855L832.563 552.865L850.655 610.325C851.818 614.023 851.173 617.938 848.88 621.065C846.59 624.193 843.055 625.984 839.181 625.984Z" fill="#275B1E"/>
<path d="M803.293 626.284H642.394L671.814 530.426H832.711L803.293 626.284Z" fill="#9CD88B"/>
<path d="M647.27 622.678L674.477 534.03H827.838L800.633 622.678H647.27Z" fill="#275B1E"/>
<path d="M688.763 523.433L655.053 633.277" stroke="#9CD88B" stroke-miterlimit="10"/>
<path d="M715.274 523.433L681.564 633.277" stroke="#9CD88B" stroke-miterlimit="10"/>
<path d="M741.786 523.433L708.075 633.277" stroke="#9CD88B" stroke-miterlimit="10"/>
<path d="M768.299 523.433L734.587 633.277" stroke="#9CD88B" stroke-miterlimit="10"/>
<path d="M794.81 523.433L761.098 633.277" stroke="#9CD88B" stroke-miterlimit="10"/>
<path d="M821.322 523.433L787.609 633.277" stroke="#9CD88B" stroke-miterlimit="10"/>
<path d="M657.925 559.596H849.321" stroke="#9CD88B" stroke-miterlimit="10"/>
<path d="M644.834 589.759H836.228" stroke="#9CD88B" stroke-miterlimit="10"/>
<path d="M642.394 626.284L649.9 634.242H810.799L803.294 626.284H642.394Z" fill="#275B1E"/>
<path d="M810.799 634.243L840.214 538.387L832.711 530.427L803.293 626.284L810.799 634.243Z" fill="#3B722F"/>
<path d="M838.506 554.532C838.506 561.232 834.529 566.662 829.624 566.662C824.717 566.662 820.742 561.232 820.742 554.532C820.742 547.834 824.717 542.403 829.624 542.403C834.529 542.403 838.506 547.834 838.506 554.532Z" fill="#609E51"/>
<path d="M841.594 554.532C841.594 561.232 837.617 566.662 832.712 566.662C827.806 566.662 823.83 561.232 823.83 554.532C823.83 547.834 827.806 542.403 832.712 542.403C837.617 542.403 841.594 547.834 841.594 554.532Z" fill="#48823B"/>
<g opacity="0.199997">
<g opacity="0.199997">
<path opacity="0.199997" d="M827.838 534.031C827.838 534.031 798.354 616.468 647.271 622.679H800.631L827.838 534.031Z" fill="#275B1E"/>
</g>
</g>
<path d="M548.911 634.988C548.911 641.686 544.934 647.118 540.03 647.118C535.123 647.118 531.148 641.686 531.148 634.988C531.148 628.288 535.123 622.857 540.03 622.857C544.934 622.857 548.911 628.288 548.911 634.988Z" fill="#609E51"/>
<path d="M552 634.988C552 641.686 548.022 647.118 543.118 647.118C538.211 647.118 534.236 641.686 534.236 634.988C534.236 628.288 538.211 622.857 543.118 622.857C548.022 622.857 552 628.288 552 634.988Z" fill="#48823B"/>
<path d="M714.322 706.438H566.821L544.424 635.311L550.725 633.321L571.666 699.826H714.322C716.068 699.826 717.665 699.017 718.695 697.607C719.73 696.199 720.021 694.433 719.497 692.767L701.403 635.311L707.704 633.321L725.798 690.779C726.961 694.477 726.315 698.392 724.023 701.519C721.732 704.646 718.198 706.438 714.322 706.438Z" fill="#275B1E"/>
<path d="M678.436 706.737H517.536L546.957 610.882H707.854L678.436 706.737Z" fill="#9CD88B"/>
<path d="M522.413 703.132L549.618 614.484H702.981L675.776 703.132H522.413Z" fill="#275B1E"/>
<path d="M563.906 603.887L530.195 713.731" stroke="#9CD88B" stroke-miterlimit="10"/>
<path d="M590.417 603.887L556.707 713.731" stroke="#9CD88B" stroke-miterlimit="10"/>
<path d="M616.929 603.887L583.218 713.731" stroke="#9CD88B" stroke-miterlimit="10"/>
<path d="M643.442 603.887L609.729 713.731" stroke="#9CD88B" stroke-miterlimit="10"/>
<path d="M669.953 603.887L636.241 713.731" stroke="#9CD88B" stroke-miterlimit="10"/>
<path d="M696.465 603.887L662.752 713.731" stroke="#9CD88B" stroke-miterlimit="10"/>
<path d="M533.068 640.05H724.464" stroke="#9CD88B" stroke-miterlimit="10"/>
<path d="M519.976 670.213H711.37" stroke="#9CD88B" stroke-miterlimit="10"/>
<path d="M517.537 706.737L525.043 714.698H685.942L678.436 706.737H517.537Z" fill="#275B1E"/>
<path d="M685.941 714.699L715.357 618.841L707.854 610.883L678.436 706.738L685.941 714.699Z" fill="#3B722F"/>
<path d="M713.648 634.988C713.648 641.686 709.671 647.118 704.767 647.118C699.86 647.118 695.885 641.686 695.885 634.988C695.885 628.288 699.86 622.857 704.767 622.857C709.671 622.857 713.648 628.288 713.648 634.988Z" fill="#609E51"/>
<path d="M716.737 634.988C716.737 641.686 712.76 647.118 707.855 647.118C702.948 647.118 698.973 641.686 698.973 634.988C698.973 628.288 702.948 622.857 707.855 622.857C712.76 622.857 716.737 628.288 716.737 634.988Z" fill="#48823B"/>
<g opacity="0.199997">
<g opacity="0.199997">
<path opacity="0.199997" d="M702.981 614.484C702.981 614.484 673.497 696.924 522.413 703.133H675.774L702.981 614.484Z" fill="#275B1E"/>
</g>
</g>
<path d="M407.24 662.966H401.827V657.753H407.24V662.966Z" fill="#275B1E"/>
<path d="M824.92 677.5C824.92 677.5 837.257 674.43 852.389 664.796" stroke="white" stroke-width="3" stroke-miterlimit="10"/>
<path d="M544.974 103.234C541.578 91.8679 531.064 83.5809 518.603 83.5809C506.143 83.5809 495.629 91.8679 492.235 103.234H544.974Z" fill="white"/>
<path d="M601.089 103.234C602.012 100.056 602.516 96.699 602.516 93.2233C602.516 73.4558 586.505 57.4329 566.753 57.4329C547.001 57.4329 530.988 73.4558 530.988 93.2233C530.988 96.699 531.492 100.056 532.415 103.234H601.089Z" fill="white"/>
<path d="M642.302 103.234C641.34 89.7763 630.154 79.1509 616.465 79.1509C602.771 79.1509 591.583 89.7763 590.621 103.234H642.302Z" fill="white"/>
</g>
<defs>
<clipPath id="clip0_1_528">
<rect width="929" height="763" fill="white"/>
</clipPath>
</defs>
</svg>
